HIERARCHY
ROOT Hips
{
	OFFSET -0.001795 -0.223333 0.028219
	CHANNELS 6 Xposition Yposition Zposition Zrotation Yrotation Xrotation 
	JOINT LeftUpLeg
	{
		OFFSET 0.069520 -0.091406 -0.006815
		CHANNELS 3 Zrotation Yrotation Xrotation
		JOINT LeftLeg
		{
			OFFSET 0.034277 -0.375199 -0.004496
			CHANNELS 3 Zrotation Yrotation Xrotation
			JOINT LeftFoot
			{
				OFFSET -0.013596 -0.397961 -0.043693
				CHANNELS 3 Zrotation Yrotation Xrotation
				JOINT LeftToe
				{
					OFFSET 0.026358 -0.055791 0.119288
					CHANNELS 3 Zrotation Yrotation Xrotation
					End Site
					{
						OFFSET 0.000000 0.000000 0.000000
					}
				}
			}
		}
	}
	JOINT RightUpLeg
	{
		OFFSET -0.067670 -0.090522 -0.004320
		CHANNELS 3 Zrotation Yrotation Xrotation
		JOINT RightLeg
		{
			OFFSET -0.038290 -0.382569 -0.008850
			CHANNELS 3 Zrotation Yrotation Xrotation
			JOINT RightFoot
			{
				OFFSET 0.015774 -0.398415 -0.042312
				CHANNELS 3 Zrotation Yrotation Xrotation
				JOINT RightToe
				{
					OFFSET -0.025372 -0.048144 0.123348
					CHANNELS 3 Zrotation Yrotation Xrotation
					End Site
					{
						OFFSET 0.000000 0.000000 0.000000
					}
				}
			}
		}
	}
	JOINT Spine
	{
		OFFSET -0.002533 0.108963 -0.026696
		CHANNELS 3 Zrotation Yrotation Xrotation
		JOINT Spine1
		{
			OFFSET 0.005487 0.135180 0.001092
			CHANNELS 3 Zrotation Yrotation Xrotation
			JOINT Spine2
			{
				OFFSET 0.001457 0.052922 0.025425
				CHANNELS 3 Zrotation Yrotation Xrotation
				JOINT Neck
				{
					OFFSET -0.002778 0.213870 -0.042857
					CHANNELS 3 Zrotation Yrotation Xrotation
					JOINT Head
					{
						OFFSET 0.005152 0.064970 0.051349
						CHANNELS 3 Zrotation Yrotation Xrotation
						End Site
						{
							OFFSET 0.000000 0.000000 0.000000
						}
					}
				}
				JOINT LeftShoulder
				{
					OFFSET 0.078845 0.121749 -0.034090
					CHANNELS 3 Zrotation Yrotation Xrotation
					JOINT LeftArm
					{
						OFFSET 0.090977 0.030469 -0.008868
						CHANNELS 3 Zrotation Yrotation Xrotation
						JOINT LeftForeArm
						{
							OFFSET 0.259612 -0.012772 -0.027456
							CHANNELS 3 Zrotation Yrotation Xrotation
							JOINT LeftHand
							{
								OFFSET 0.249234 0.008986 -0.001171
								CHANNELS 3 Zrotation Yrotation Xrotation
								End Site
								{
									OFFSET 0.000000 0.000000 0.000000
								}
							}
						}
					}
				}
				JOINT RightShoulder
				{
					OFFSET -0.081759 0.118833 -0.038615
					CHANNELS 3 Zrotation Yrotation Xrotation
					JOINT RightArm
					{
						OFFSET -0.096012 0.032551 -0.009143
						CHANNELS 3 Zrotation Yrotation Xrotation
						JOINT RightForeArm
						{
							OFFSET -0.253742 -0.013329 -0.021401
							CHANNELS 3 Zrotation Yrotation Xrotation
							JOINT RightHand
							{
								OFFSET -0.255298 0.007772 -0.005559
								CHANNELS 3 Zrotation Yrotation Xrotation
								End Site
								{
									OFFSET 0.000000 0.000000 0.000000
								}
							}
						}
					}
				}
			}
		}
	}
}
MOTION
Frames: 16
Frame Time: 0.05000000
0.060552 0.051815 3.758687 21.994386 2.133438 -59.404219 16.046448 11.691005 -79.586175 -1.565996 -3.772897 103.406898 -5.170698 -28.176885 -16.768073 0.000000 0.000000 0.000000 -9.052429 9.803026 -78.407267 34.196116 -20.750950 64.451648 -54.216976 -56.595641 46.164533 0.000000 0.000000 0.000000 2.671840 1.016794 53.948757 5.494149 -4.340881 -13.186166 -4.952940 6.941269 19.264191 2.602076 -8.743949 26.911670 0.000000 0.000000 0.000000 -30.709702 -26.302347 10.342986 -9.944382 -7.725163 -0.654239 6.526147 -55.755218 -3.945026 0.000000 0.000000 0.000000 20.723329 27.971784 11.599763 17.525854 13.587776 -0.778611 -6.944330 56.217185 -2.771216 0.000000 0.000000 0.000000 
0.065304 0.059167 3.770236 19.177883 -2.390401 -53.331151 18.551608 16.343997 -86.239659 -5.989008 1.327748 120.169757 10.697312 -18.586180 -52.806805 0.000000 0.000000 0.000000 -12.778523 8.803499 -86.107608 38.032535 -23.750528 62.112478 -52.132727 -60.009090 37.967621 0.000000 0.000000 0.000000 0.235013 1.994638 56.877807 6.398015 -4.723003 -11.027389 -4.034830 8.924216 17.621318 1.695822 -7.622391 25.456620 0.000000 0.000000 0.000000 -26.155093 -28.663921 10.685729 -7.900676 -11.371427 -0.298652 7.669227 -55.503510 -4.668771 0.000000 0.000000 0.000000 19.324221 28.512663 12.507339 10.487864 14.898415 -0.619222 -10.226789 58.201531 -4.609160 0.000000 0.000000 0.000000 
0.070548 0.076047 3.784006 16.490471 -6.271529 -46.244214 17.762479 18.407120 -94.426806 -5.604782 -0.938001 136.891431 11.784244 -13.945334 -57.601241 0.000000 0.000000 0.000000 -18.218241 5.436317 -94.490666 44.780085 -29.277527 60.472074 -46.525509 -67.664878 18.482579 0.000000 0.000000 0.000000 -2.226405 3.508574 61.244801 6.339114 -4.287388 -12.997832 -2.882727 9.433181 18.427886 1.431142 -5.923937 20.795964 0.000000 0.000000 0.000000 -23.273689 -30.281880 11.205717 -4.004562 -10.487065 -0.262376 21.465450 -56.950428 -12.651149 0.000000 0.000000 0.000000 17.865624 31.022619 13.586398 5.292343 11.565811 -0.695588 -18.243101 63.731593 -10.062926 0.000000 0.000000 0.000000 
0.074651 0.093706 3.801878 10.815575 -6.992881 -38.873340 16.330736 16.255961 -102.215087 -3.804720 -10.594332 150.493746 11.375924 -11.711177 -57.512004 0.000000 0.000000 0.000000 -21.770235 -0.421534 -98.791933 47.476988 -33.717181 63.504049 -20.248851 -60.299873 -18.566032 0.000000 0.000000 0.000000 -4.239756 3.966681 65.713050 9.254724 -4.974026 -15.033057 -2.049531 11.220948 19.390828 0.316125 -3.449606 16.315973 0.000000 0.000000 0.000000 -21.749461 -30.627398 10.687569 1.313997 -11.867544 -0.190970 28.287237 -57.857667 -17.088781 0.000000 0.000000 0.000000 15.477005 31.149077 13.866932 -0.788622 10.261673 -0.386636 -29.952266 63.509883 -17.168574 0.000000 0.000000 0.000000 
0.077088 0.122973 3.823372 4.900780 -6.192181 -27.304620 17.255472 16.296110 -111.658014 -3.713818 -19.340168 159.687525 12.424362 -15.284867 -60.350547 0.000000 0.000000 0.000000 -25.698182 -8.946099 -104.527049 59.189013 -42.009554 60.518091 -11.467283 -59.601403 -37.164842 0.000000 0.000000 0.000000 -3.964419 2.691350 68.956539 10.226764 -3.532786 -22.921291 -1.561128 11.763689 23.945302 0.756334 -2.269152 11.282725 0.000000 0.000000 0.000000 -19.640588 -30.209906 10.993504 6.625553 -14.501382 -0.350900 37.971746 -56.730146 -22.546126 0.000000 0.000000 0.000000 11.972858 28.718538 12.348862 -3.687947 11.668502 -0.219936 -40.828939 62.949824 -23.904276 0.000000 0.000000 0.000000 
0.078639 0.168033 3.848513 0.102523 -5.136142 -16.650167 20.805588 19.353269 -112.257867 -3.669932 -28.551320 162.988832 12.659635 -25.611779 -58.532861 0.000000 0.000000 0.000000 -26.603974 -13.395536 -106.610041 65.889501 -46.685242 59.085316 -8.234709 -54.058491 -44.422456 0.000000 0.000000 0.000000 -3.114023 1.142755 70.262558 6.794788 -1.504081 -25.031124 1.259652 7.935744 25.238713 -0.861396 1.665605 -0.536258 0.000000 0.000000 0.000000 -17.294461 -29.927471 12.043627 8.418226 -14.942641 -0.450470 54.883487 -50.594163 -28.604406 0.000000 0.000000 0.000000 5.037987 28.460865 10.329022 -2.843923 11.930695 -0.373718 -51.121192 57.878115 -27.610731 0.000000 0.000000 0.000000 
0.080612 0.227676 3.880174 -2.279205 -4.000053 -5.265787 24.216645 22.019217 -108.652539 -3.120470 -23.229677 161.142533 8.291663 -25.465316 -47.457855 0.000000 0.000000 0.000000 -25.035209 -13.695588 -108.082622 61.300952 -51.049488 69.600576 -6.214863 -49.357626 -51.279577 0.000000 0.000000 0.000000 -3.607329 0.814087 67.658618 6.267899 -0.988689 -25.334446 2.285429 6.441119 26.925711 -2.357195 3.865252 -19.520057 0.000000 0.000000 0.000000 -10.445843 -26.984397 10.448800 6.738657 -19.919424 -1.469261 66.831026 -46.160295 -32.025755 0.000000 0.000000 0.000000 -1.903560 27.446236 8.577442 0.578208 14.826627 -0.844357 -59.533595 53.300493 -29.147277 0.000000 0.000000 0.000000 
0.084669 0.300586 3.925557 -5.716305 -4.326357 4.091663 29.251074 24.870381 -97.974725 -3.786678 -2.518688 151.992284 6.766733 -6.826505 -38.759550 0.000000 0.000000 0.000000 -23.358811 -11.348842 -107.412896 58.051641 -50.980194 72.789323 -6.169171 -47.278569 -52.620026 0.000000 0.000000 0.000000 -4.561588 1.611302 67.345282 5.272999 -0.597898 -25.755283 5.028196 7.528211 26.392974 -3.463389 4.592105 -33.093757 0.000000 0.000000 0.000000 -3.608203 -25.873740 9.219173 0.650729 -23.879249 -2.004974 76.756823 -47.030427 -37.885180 0.000000 0.000000 0.000000 -7.090496 24.349506 6.834071 5.149764 16.409486 -1.012403 -68.926553 48.974153 -29.992041 0.000000 0.000000 0.000000 
0.089848 0.388458 3.993696 -7.741510 -2.078041 15.017080 33.124197 23.144010 -86.847831 -6.220987 12.128079 138.713358 7.301833 6.241635 -29.242811 0.000000 0.000000 0.000000 -21.790382 -10.740459 -105.335464 49.652233 -48.799111 80.579488 -7.760250 -44.597343 -47.584877 0.000000 0.000000 0.000000 -6.143611 1.846871 60.960998 7.773372 -1.303815 -22.066574 6.077263 6.852608 24.705872 -6.895893 5.592962 -37.697365 0.000000 0.000000 0.000000 -2.846152 -22.921774 8.499460 -4.155283 -27.655771 -2.216026 76.668267 -49.108744 -38.093112 0.000000 0.000000 0.000000 -1.594790 23.572017 8.680658 3.625121 15.641026 -1.269335 -74.955957 45.438026 -30.540827 0.000000 0.000000 0.000000 
0.097191 0.486915 4.093354 -9.041841 0.131612 24.594656 41.713721 21.800051 -69.663653 -12.759675 25.470609 118.757069 7.599284 11.700714 -17.181951 0.000000 0.000000 0.000000 -22.690148 -12.426489 -101.635287 42.605238 -44.009602 83.324820 -11.105227 -35.911077 -28.277653 0.000000 0.000000 0.000000 -7.253046 2.108135 58.145889 13.804609 -2.543818 -21.213334 3.558232 8.663927 23.062989 -10.112218 6.759855 -36.817434 0.000000 0.000000 0.000000 -9.069423 -21.135874 8.373608 -2.215986 -27.689007 -3.029133 68.213464 -52.176503 -34.182508 0.000000 0.000000 0.000000 14.546302 18.012181 11.353787 -1.436655 21.398248 -2.555157 -80.153193 57.865334 -43.247039 0.000000 0.000000 0.000000 
0.110876 0.578594 4.219244 -10.316869 -0.026433 31.678894 43.399760 15.961028 -53.539492 -22.321137 31.538389 93.837216 10.234851 20.242469 -26.237458 0.000000 0.000000 0.000000 -25.100521 -13.288976 -97.360495 44.708879 -38.743204 70.158693 -10.997931 -29.083162 -13.606320 0.000000 0.000000 0.000000 -8.445429 3.260356 56.661286 17.725375 -3.205441 -19.786137 4.275754 10.125750 20.685581 -30.824890 19.423909 -13.805868 0.000000 0.000000 0.000000 -25.825821 -20.523805 9.290148 2.766185 -24.687680 -3.474227 54.719072 -56.465355 -27.131333 0.000000 0.000000 0.000000 37.269236 18.146900 17.929110 -10.703627 12.098787 -1.192889 -81.591331 62.670418 -52.238420 0.000000 0.000000 0.000000 
0.131594 0.658843 4.357698 -9.859489 1.487780 36.908073 34.607364 7.831315 -45.647088 -21.718839 26.371983 83.452609 8.138423 13.314550 -26.992196 0.000000 0.000000 0.000000 -25.917000 -13.359079 -90.965341 45.984161 -33.110685 57.289774 -10.223007 -29.476332 -17.651408 0.000000 0.000000 0.000000 -8.173095 3.065533 62.414955 51.877809 -11.626933 -11.506974 -35.564000 21.427389 -14.902621 -27.886315 44.297599 70.551882 0.000000 0.000000 0.000000 -38.261159 -19.262791 5.916878 6.962281 -14.082234 -0.214388 29.727312 -63.822804 -13.771273 0.000000 0.000000 0.000000 72.286906 15.425334 32.460232 -22.864710 0.975590 2.474821 -50.952856 65.417550 -37.739280 0.000000 0.000000 0.000000 
0.155391 0.715660 4.497996 -9.488259 0.317774 38.559064 28.179077 3.166748 -35.601361 -20.653127 25.243385 82.494884 5.424037 10.517868 -5.719273 0.000000 0.000000 0.000000 -24.958817 -10.686158 -86.509520 47.213949 -30.832759 51.101495 -7.978102 -28.241123 -36.596247 0.000000 0.000000 0.000000 -11.379853 8.189768 83.303522 134.618780 25.815985 -46.857142 -166.810553 69.853983 -44.908755 21.348368 66.595104 140.698264 0.000000 0.000000 0.000000 -31.243871 -37.748548 2.511233 10.172967 -20.520670 -0.643518 51.113799 -60.640689 -39.263263 0.000000 0.000000 0.000000 66.625286 17.287207 38.660426 -25.859612 12.428912 0.700743 -67.598205 35.419143 -45.300030 0.000000 0.000000 0.000000 
0.181812 0.749243 4.632712 -7.539651 2.691118 36.969846 25.161259 0.164885 -27.496249 -18.390387 24.807635 90.517415 3.962261 7.977255 -2.534600 0.000000 0.000000 0.000000 -29.131878 -12.778557 -76.502856 54.419897 -35.898268 47.971997 -6.256879 -27.851687 -60.999487 0.000000 0.000000 0.000000 -15.855599 18.399169 112.491220 142.000137 29.342703 -51.313238 125.662810 71.359995 -126.741962 5.599129 55.755551 132.185675 0.000000 0.000000 0.000000 -58.122108 -44.126589 -21.197248 10.789111 -19.804587 1.037558 -36.242041 -65.939024 41.333963 0.000000 0.000000 0.000000 65.808852 18.693685 42.025372 -28.977111 12.197720 1.114375 -57.135339 29.628943 -37.668443 0.000000 0.000000 0.000000 
0.214647 0.776487 4.755439 -8.034020 1.758203 24.935866 29.701238 -1.912787 -9.976009 -13.494938 21.015602 98.601783 4.990761 0.559523 -22.635915 0.000000 0.000000 0.000000 -30.089003 -9.625229 -63.107974 47.495688 -44.412889 70.389115 -6.998696 -25.646607 -67.309162 0.000000 0.000000 0.000000 -28.651836 49.973754 127.507245 173.139208 -60.280517 -48.376743 179.784607 7.728005 -71.977468 5.899107 -7.629186 133.926660 0.000000 0.000000 0.000000 -45.877222 -53.935824 -47.334243 1.548697 -33.236585 20.242853 52.984054 -77.470002 22.232642 0.000000 0.000000 0.000000 36.364945 51.160830 -88.632164 6.646571 17.871732 -4.216308 65.554578 42.150807 -17.099933 0.000000 0.000000 0.000000 
0.256267 0.798030 4.860470 -8.106847 -1.059619 0.962267 39.862516 -5.305907 17.129674 -10.133868 12.501719 109.039691 14.090725 4.125701 -78.603288 0.000000 0.000000 0.000000 -32.866445 -5.469711 -33.688301 33.483506 -39.429207 94.756865 -9.450180 -14.592644 -68.259663 0.000000 0.000000 0.000000 -159.641750 0.282462 -0.981789 -0.879640 21.762254 139.942118 -165.156208 -9.520412 2.051049 1.375338 16.788922 120.725027 0.000000 0.000000 0.000000 -19.524341 -13.877684 23.241169 89.502941 10.308861 -2.225315 108.842026 54.742570 52.768996 0.000000 0.000000 0.000000 7.286851 1.855237 139.106653 48.361621 -46.943086 -49.750555 72.784322 -6.514316 -61.923803 0.000000 0.000000 0.000000 
